# xmcd
#
# Track frame offsets:
#	150
#	12384
#	30625
#	53857
#	74452
#	93087
#	111872
#	134875
#	151147
#	160646
#	174780
#	192340
#	208640
#	222629
#	232434
#	247891
#	263104
#	285740
#	302567
#	319419
#	334236
#
# Disc length: 4794 seconds
#
# Revision: 0
# Processed by: cddbd v1.5.2PL0 Copyright (c) Steve Scherf et al.
# Submitted via: audiograbber 1.83.01
#
DISCID=3812b815
DTITLE=Ben Folds Five - The Best Imitation Of Myself - Disc 2 - Live
DYEAR=2012
DGENRE=Rock
TTITLE0=Julianne [Live]
TTITLE1=Video [Live]
TTITLE2=Song For The Dumped [Live]
TTITLE3=Missing The War [Live]
TTITLE4=Mess [Live]
TTITLE5=Magic [Live]
TTITLE6=Selfless, Cold And Composed [Live]
TTITLE7=Zak And Sara [Live]
TTITLE8=Girl [Live]
TTITLE9=Just Pretend [Live]
TTITLE10=Fred Jones Part 2 - with The West Australian Symphony Orchestra [Live]
TTITLE10=
TTITLE11=Careless Whisper - with Rufus Wainright [Live]
TTITLE12=All You Can Eat [Live]
TTITLE13=Long Tall Texan [Live]
TTITLE14=Army [Live]
TTITLE15=Battle Of Who Could Care Less [Live]
TTITLE16=Kylie From Connecticut [Live]
TTITLE17=Effington [Live]
TTITLE18=Pictures Window [Live]
TTITLE19=Sentimental Guy [Live]
TTITLE20=Not The Same [Live]
EXTD=
EXTT0=
EXTT1=
EXTT2=
EXTT3=
EXTT4=
EXTT5=
EXTT6=
EXTT7=
EXTT8=
EXTT9=
EXTT10=
EXTT11=
EXTT12=
EXTT13=
EXTT14=
EXTT15=
EXTT16=
EXTT17=
EXTT18=
EXTT19=
EXTT20=
PLAYORDER=
